<svg width="38" height="38" viewBox="0 0 38 38" fill="none" xmlns="http://www.w3.org/2000/svg">
<rect width="38" height="38" rx="19" fill="#00D1FF"/>
<path fill-rule="evenodd" clip-rule="evenodd" d="M18.0183 12.8528H11.3474C10.181 12.8528 9.23633 13.8545 9.23633 15.0884V26.2643C9.23633 27.4992 10.181 28.4999 11.3474 28.4999H22.9581C24.1245 28.4999 25.0692 27.4992 25.0692 26.2643V18.084L20.9379 22.4581C20.5771 22.8438 20.1072 23.1104 19.591 23.2223L16.7612 23.8218C14.914 24.2123 13.2864 22.4887 13.6558 20.5338L14.2216 17.5372C14.324 16.9968 14.5752 16.4996 14.9435 16.1101L18.0183 12.8528Z" fill="white"/>
<path fill-rule="evenodd" clip-rule="evenodd" d="M27.0179 10.8916C26.9112 10.6215 26.7548 10.3737 26.5567 10.1612C26.3619 9.95341 26.1271 9.78717 25.8664 9.6725C25.6095 9.55971 25.332 9.50146 25.0515 9.50146C24.771 9.50146 24.4935 9.55971 24.2366 9.6725C23.9759 9.78717 23.7411 9.95341 23.5463 10.1612L22.97 10.7713L25.9804 13.959L26.5567 13.3478C26.7569 13.137 26.9136 12.8888 27.0179 12.6174C27.2354 12.0627 27.2354 11.4463 27.0179 10.8916ZM24.4889 15.5391L21.4775 12.3504L16.4353 17.6913C16.3609 17.7706 16.3107 17.8695 16.2907 17.9763L15.7249 20.974C15.651 21.3645 15.9772 21.7086 16.3455 21.6305L19.1765 21.0321C19.2795 21.0091 19.3732 20.9558 19.4456 20.879L24.4889 15.5391Z" fill="white"/>
</svg>
