<svg width="14" height="12" viewBox="0 0 14 12" fill="none" xmlns="http://www.w3.org/2000/svg">
<path d="M0.860833 0C0.385408 0 0 0.385408 0 0.860832V0.860832C0 1.33626 0.385408 1.72166 0.860832 1.72166H12.9392C13.4146 1.72166 13.8 1.33626 13.8 0.860832V0.860832C13.8 0.385408 13.4146 0 12.9392 0H0.860833ZM0.860833 5.11334C0.385408 5.11334 0 5.49875 0 5.97418V5.97418C0 6.4496 0.385408 6.83501 0.860832 6.83501H12.9392C13.4146 6.83501 13.8 6.4496 13.8 5.97418V5.97418C13.8 5.49875 13.4146 5.11334 12.9392 5.11334H0.860833ZM0.860833 10.2783C0.385408 10.2783 0 10.6637 0 11.1392V11.1392C0 11.6146 0.385408 12 0.860832 12H12.9392C13.4146 12 13.8 11.6146 13.8 11.1392V11.1392C13.8 10.6637 13.4146 10.2783 12.9392 10.2783H0.860833Z" fill="#FFC73C" />
</svg>
