<svg width="15" height="15" viewBox="0 0 15 15" fill="none" xmlns="http://www.w3.org/2000/svg">
<path d="M3.40137 0.707106C3.01085 0.316582 2.37769 0.316582 1.98716 0.707107L0.707106 1.98716C0.316582 2.37769 0.316583 3.01085 0.707107 3.40137L1.3758 4.07006L4.08173 6.8216C4.46669 7.21305 4.46407 7.84167 4.07585 8.22989L1.3758 10.9299L0.729789 11.549C0.328013 11.9341 0.317853 12.573 0.707185 12.9706L1.98724 14.2779C2.37651 14.6755 3.01542 14.6788 3.40886 14.2854L4.07006 13.6242L6.81562 10.8786C7.20846 10.4858 7.84618 10.4885 8.23572 10.8846L10.9299 13.6242L11.5416 14.2625C11.9295 14.6672 12.5743 14.6741 12.9707 14.2777L14.2777 12.9707C14.6741 12.5743 14.6672 11.9295 14.2625 11.5416L13.6242 10.9299L10.8846 8.23572C10.4885 7.84618 10.4858 7.20846 10.8786 6.81562L13.6242 4.07006L14.2854 3.40886C14.6788 3.01542 14.6755 2.37651 14.2779 1.98724L12.9706 0.707184C12.573 0.317852 11.9341 0.328013 11.549 0.729789L10.9299 1.3758L8.22988 4.07585C7.84167 4.46407 7.21305 4.46669 6.8216 4.08173L4.07006 1.3758L3.40137 0.707106Z" fill="#FFC73C"/>
</svg>
